<svg width="95" height="22" viewBox="0 0 95 22" fill="none" xmlns="http://www.w3.org/2000/svg">
<path fill-rule="evenodd" clip-rule="evenodd" d="M67.0898 0.147588C62.0504 0.184417 57.9992 4.29696 58.0361 9.33637C58.0606 12.7062 59.9143 15.6341 62.6397 17.1932L59.2146 21.6372L67.3783 21.5512C67.3783 21.5512 73.9338 15.5175 74.6888 14.4187C75.7077 12.9333 76.297 11.1348 76.2786 9.19519C76.2418 4.16192 72.1292 0.110759 67.0898 0.147588V0.147588ZM67.1819 12.6632C65.3098 12.6816 63.7752 11.1717 63.7629 9.2934C63.7445 7.41513 65.2545 5.88674 67.1328 5.87446C69.011 5.85605 70.5394 7.36603 70.5579 9.24429C70.5701 11.1164 69.0601 12.651 67.1819 12.6632V12.6632Z" fill="#333333"/>
<path fill-rule="evenodd" clip-rule="evenodd" d="M85.8111 0.000249127C80.7717 0.043216 76.7206 4.15576 76.7574 9.19516C76.7819 12.565 78.6295 15.4867 81.361 17.0458L77.9359 21.496L86.0996 21.4039C86.0996 21.4039 92.6551 15.3763 93.4101 14.2714C94.4229 12.786 95.0122 10.9936 94.9999 9.05399C94.9631 4.01458 90.8444 -0.0365796 85.8111 0.000249127ZM85.9032 12.522C84.0249 12.5343 82.4965 11.0243 82.4843 9.15219C82.4659 7.27393 83.9758 5.74553 85.8541 5.72712C87.7262 5.71484 89.2608 7.22483 89.273 9.09695C89.2915 10.9752 87.7815 12.5036 85.9032 12.522Z" fill="#333333"/>
<path fill-rule="evenodd" clip-rule="evenodd" d="M16.3397 15.1553L16.3213 12.8351L20.2374 12.8044L20.2067 8.2745L16.2845 8.30519L16.266 5.68421L22.9014 5.6351L22.8645 0.963989L15.5111 1.01923V1.03151L10.4348 1.06834L10.4901 8.17629L5.69618 8.21311L5.65322 2.61514L0 2.65811L0.110486 17.23L5.7637 17.1871L5.73301 12.9149L10.5269 12.8781L10.5821 19.8571L15.6584 19.8203V19.8326L23.0118 19.7773L22.975 15.1062L16.3397 15.1553Z" fill="#333333"/>
<path fill-rule="evenodd" clip-rule="evenodd" d="M29.9173 1.51637C26.8236 1.54092 23.7362 1.70051 23.7791 7.11434C23.7975 9.6187 24.7428 11.0121 26.0748 11.7793L23.4722 17.7885L29.549 17.7394L31.6973 12.5589L33.1828 12.5466L33.2196 17.7149L38.9342 17.6719L38.8114 1.44885L29.9173 1.51637V1.51637ZM30.8012 8.20693C30.0707 8.20693 29.4999 8.1701 29.4876 7.06523C29.4815 5.96651 30.0523 5.91127 30.7827 5.91127L33.1275 5.89286L33.1459 8.18851L30.8012 8.20693Z" fill="#333333"/>
<path fill-rule="evenodd" clip-rule="evenodd" d="M48.4666 0.30103C43.4272 0.337859 39.376 4.45654 39.4128 9.49594C39.4497 14.5353 43.5684 18.5865 48.6016 18.5497C53.641 18.5129 57.6922 14.3942 57.6554 9.35477C57.6185 4.31537 53.4998 0.264202 48.4666 0.30103ZM48.5648 12.8167C46.6865 12.8289 45.1581 11.319 45.1397 9.44684C45.1274 7.56857 46.6313 6.04018 48.5095 6.02177C50.3878 6.00949 51.9162 7.51333 51.9346 9.3916C51.9469 11.2699 50.4431 12.7983 48.5648 12.8167Z" fill="#333333"/>
</svg>
